<?xml version="1.0" encoding="UTF-8" standalone="no"?>
<svg
   viewBox="-25 138.27289 483.92975 134.99997"
   version="1.1"
   id="svg6"
   sodipodi:docname="Horizontal_path.svg"
   inkscape:version="1.4.2 (f4327f4, 2025-05-13)"
   width="483.92975"
   height="135"
   inkscape:export-filename="C:\Users\timop\OneDrive - DeveloX Oy\Timo\Solidius\Logo\Logo_blue.png"
   inkscape:export-xdpi="101.49788"
   inkscape:export-ydpi="101.49788"
   xmlns:inkscape="http://www.inkscape.org/namespaces/inkscape"
   xmlns:sodipodi="http://sodipodi.sourceforge.net/DTD/sodipodi-0.dtd"
   xmlns="http://www.w3.org/2000/svg"
   xmlns:svg="http://www.w3.org/2000/svg"
   xmlns:rdf="http://www.w3.org/1999/02/22-rdf-syntax-ns#"
   xmlns:cc="http://creativecommons.org/ns#"
   xmlns:dc="http://purl.org/dc/elements/1.1/">
  <metadata
     id="metadata12">
    <rdf:RDF>
      <cc:Work
         rdf:about="">
        <dc:format>image/svg+xml</dc:format>
        <dc:type
           rdf:resource="http://purl.org/dc/dcmitype/StillImage" />
      </cc:Work>
    </rdf:RDF>
  </metadata>
  <defs
     id="defs6" />
  <sodipodi:namedview
     id="namedview6"
     pagecolor="#ffffff"
     bordercolor="#000000"
     borderopacity="0.25"
     inkscape:showpageshadow="2"
     inkscape:pageopacity="0.0"
     inkscape:pagecheckerboard="0"
     inkscape:deskcolor="#d1d1d1"
     inkscape:zoom="1.5575701"
     inkscape:cx="134.50438"
     inkscape:cy="33.385335"
     inkscape:window-width="2493"
     inkscape:window-height="1232"
     inkscape:window-x="176"
     inkscape:window-y="46"
     inkscape:window-maximized="0"
     inkscape:current-layer="layer1"
     inkscape:document-rotation="0"
     showgrid="false"
     fit-margin-top="20"
     fit-margin-right="20"
     fit-margin-bottom="20"
     fit-margin-left="20"
     inkscape:snap-page="true" />
  <g
     inkscape:groupmode="layer"
     id="layer1"
     inkscape:label="Logo"
     style="display:inline"
     transform="translate(-7.3825108,-42.113553)">
    <g
       id="g853"
       transform="matrix(1.234637,0,0,1.1990845,-53.176153,-49.350351)"
       style="display:inline;fill:currentColor;fill-opacity:1;stroke:none;stroke-width:0.589284;stroke-miterlimit:4;stroke-dasharray:none;stroke-opacity:0.983936">
      <path
         class="st0"
         d="m 116.84639,245.68826 h 5.0993 c -0.17882,-32.7292 -4.63684,-37.23039 -36.274662,-37.41537 v 6.24 c 0,17.22168 13.959855,31.17537 31.175362,31.17537 z"
         style="fill:currentColor;fill-opacity:1;stroke:none;stroke-width:0.589284;stroke-miterlimit:4;stroke-dasharray:none;stroke-opacity:0.983936"
         id="path1"
         sodipodi:nodetypes="sccss" />
      <path
         class="st0"
         d="m 50.105459,250.08463 h -5.10546 c 0.178815,32.7292 4.636843,37.23039 36.274661,37.41537 v -6.24001 c 0.0062,-17.22167 -13.95369,-31.17536 -31.169201,-31.17536 z"
         style="fill:currentColor;fill-opacity:1;stroke:none;stroke-width:0.589284;stroke-miterlimit:4;stroke-dasharray:none;stroke-opacity:0.983936"
         id="path2" />
      <path
         class="st0"
         d="m 44.999999,245.68826 h 5.099294 c 17.215511,0 31.175367,-13.95986 31.175367,-31.17537 v -6.24 c -31.637818,0.18498 -36.095846,4.69233 -36.274661,37.41537 z"
         style="fill:currentColor;fill-opacity:1;stroke:none;stroke-width:0.589284;stroke-miterlimit:4;stroke-dasharray:none;stroke-opacity:0.983936"
         id="path3" />
      <path
         class="st0"
         d="M 85.671028,281.25999 V 287.5 c 31.643982,-0.18498 36.102012,-4.69234 36.274662,-37.41537 h -5.0993 c -17.215507,0 -31.175362,13.95369 -31.175362,31.17536 z"
         style="fill:currentColor;fill-opacity:1;stroke:none;stroke-width:0.589284;stroke-miterlimit:4;stroke-dasharray:none;stroke-opacity:0.983936"
         id="path4" />
    </g>
  </g>
  <g
     inkscape:groupmode="layer"
     id="layer2"
     inkscape:label="Teksti"
     style="display:inline"
     transform="translate(-7.3825108,-42.113553)">
    <path
       style="font-weight:bold;font-size:51.8702px;line-height:1.25;font-family:Syncopate;-inkscape-font-specification:'Syncopate Bold';stroke-width:1.235"
       d="m 160.19033,240.26294 q -0.98776,-0.48121 -2.6087,-1.08907 -1.62095,-0.60785 -3.67246,-1.13972 -2.0515,-0.5572 -4.45759,-0.91179 -2.40609,-0.3799 -4.93881,-0.3799 -2.02618,0 -3.46984,0.12663 -1.41832,0.12664 -2.40609,0.32926 -0.96243,0.20261 -1.54496,0.48121 -0.5572,0.25328 -0.86112,0.53188 -0.30393,0.2786 -0.40524,0.5572 -0.076,0.2786 -0.076,0.50654 0,0.75982 0.75982,1.34234 0.75981,0.5572 2.07683,1.01309 1.31702,0.43057 3.0646,0.8358 1.74758,0.37991 3.69778,0.81048 1.97552,0.40523 4.05235,0.91178 2.10217,0.48121 4.05236,1.13972 1.97553,0.65851 3.72311,1.54496 1.74758,0.86113 3.0646,2.02618 1.31701,1.16506 2.07683,2.68469 0.75982,1.51964 0.75982,3.46983 0,2.5074 -0.88646,4.30564 -0.88645,1.79823 -2.38076,3.03927 -1.46898,1.24103 -3.41918,2.00085 -1.95019,0.73449 -4.10301,1.13973 -2.12749,0.40523 -4.33096,0.53187 -2.17814,0.12663 -4.15367,0.12663 -5.16676,0 -9.5737,-0.86112 -4.38161,-0.8358 -7.75013,-2.10216 v -8.30734 q 3.46983,1.92487 7.9021,3.01394 4.45759,1.08907 9.52304,1.08907 2.98862,0 4.86283,-0.30392 1.89955,-0.32926 2.96329,-0.81048 1.06375,-0.50654 1.44365,-1.08907 0.37991,-0.58252 0.37991,-1.1144 0,-0.8358 -0.75981,-1.44365 -0.75982,-0.63318 -2.07684,-1.08907 -1.31702,-0.48122 -3.0646,-0.86113 -1.74758,-0.40523 -3.7231,-0.78514 -1.9502,-0.40524 -4.02703,-0.86113 -2.07684,-0.45589 -4.05236,-1.06374 -1.9502,-0.63318 -3.69778,-1.44366 -1.74758,-0.8358 -3.0646,-1.95019 -1.31701,-1.13973 -2.07683,-2.60871 -0.75982,-1.49431 -0.75982,-3.44451 0,-2.30478 0.81047,-3.97637 0.81047,-1.6716 2.17815,-2.83666 1.39299,-1.19038 3.19123,-1.92487 1.82356,-0.73449 3.82441,-1.13972 2.00086,-0.40524 4.05236,-0.5572 2.05151,-0.15197 3.9004,-0.15197 2.02618,0 4.15367,0.20262 2.15281,0.20262 4.22965,0.58253 2.07683,0.35458 4.0017,0.8358 1.9502,0.48122 3.59647,1.01309 z m 56.80902,7.6235 q 0,4.48293 -1.64627,7.92743 -1.64628,3.41918 -4.71087,5.72396 -3.0646,2.30478 -7.44621,3.49516 -4.35629,1.16505 -9.80165,1.16505 -5.44536,0 -9.8523,-1.16505 -4.38161,-1.19038 -7.47153,-3.49516 -3.08993,-2.30478 -4.76153,-5.72396 -1.67159,-3.4445 -1.67159,-7.92743 0,-4.48292 1.67159,-7.9021 1.6716,-3.4445 4.76153,-5.74928 3.08992,-2.30478 7.47153,-3.46983 4.40694,-1.19039 9.8523,-1.19039 5.44536,0 9.80165,1.19039 4.38161,1.16505 7.44621,3.46983 3.06459,2.30478 4.71087,5.74928 1.64627,3.41918 1.64627,7.9021 z m -9.49772,0 q 0,-1.95019 -0.63318,-3.87506 -0.60786,-1.9502 -2.20347,-3.49516 -1.57029,-1.54497 -4.30563,-2.5074 -2.73535,-0.96244 -6.965,-0.96244 -2.83665,0 -4.98946,0.45589 -2.15282,0.43057 -3.72311,1.21571 -1.57029,0.78515 -2.63403,1.84889 -1.06375,1.03842 -1.69693,2.25412 -0.63318,1.19039 -0.91178,2.5074 -0.25327,1.29169 -0.25327,2.55805 0,1.29169 0.25327,2.60871 0.2786,1.31702 0.91178,2.53273 0.63318,1.19038 1.69693,2.22879 1.06374,1.03842 2.63403,1.82356 1.57029,0.75982 3.72311,1.21571 2.15281,0.43057 4.98946,0.43057 4.22965,0 6.965,-0.96244 2.73534,-0.96244 4.30563,-2.5074 1.59561,-1.54496 2.20347,-3.46983 0.63318,-1.9502 0.63318,-3.9004 z m 18.05832,17.3745 V 230.4613 h 9.39641 v 27.17613 h 25.40323 v 7.62351 z m 42.32184,0 V 230.4613 h 9.39641 v 34.79964 z m 62.91288,-17.42515 q 0,3.3432 -0.73449,5.9519 -0.73449,2.58338 -2.07683,4.50825 -1.31702,1.92487 -3.19124,3.26722 -1.84889,1.34234 -4.12834,2.15281 -2.27945,0.81048 -4.91348,1.19038 -2.63404,0.35459 -5.49602,0.35459 H 288.16891 V 230.4613 h 22.03471 q 2.86198,0 5.49601,0.37991 2.63404,0.35458 4.91349,1.16505 2.30478,0.81047 4.17899,2.15282 1.87422,1.31701 3.19124,3.26721 1.34234,1.92487 2.07683,4.50825 0.73449,2.58338 0.73449,5.90125 z m -9.47239,0 q 0,-2.5074 -0.65851,-4.35629 -0.63318,-1.84889 -2.07683,-3.03927 -1.41833,-1.2157 -3.72311,-1.79823 -2.30478,-0.60785 -5.62265,-0.60785 h -11.67586 v 19.65394 h 11.67586 q 3.31787,0 5.62265,-0.58253 2.30478,-0.60785 3.72311,-1.82356 1.44365,-1.24103 2.07683,-3.08992 0.65851,-1.84889 0.65851,-4.35629 z m 18.03301,17.42515 V 230.4613 h 9.3964 v 34.79964 z m 61.3679,-11.72652 q 0,2.60871 -1.29169,4.91349 -1.29169,2.30478 -3.87507,4.02703 -2.58338,1.72225 -6.45845,2.73534 -3.84974,0.98776 -9.0165,0.98776 -5.16676,0 -9.06715,-0.98776 -3.87507,-1.01309 -6.45845,-2.73534 -2.58338,-1.72225 -3.87507,-4.02703 -1.29169,-2.30478 -1.29169,-4.91349 V 230.4613 h 9.37108 v 19.7046 q 0,1.74758 0.43057,3.31787 0.45589,1.54496 1.6716,2.71001 1.24103,1.16505 3.4445,1.84889 2.2288,0.68384 5.77461,0.68384 3.52049,0 5.72396,-0.68384 2.20347,-0.68384 3.41918,-1.84889 1.24103,-1.16505 1.6716,-2.71001 0.43056,-1.57029 0.43056,-3.31787 v -19.7046 h 9.39641 z m 42.70176,-13.27148 q -0.98776,-0.48121 -2.60871,-1.08907 -1.62094,-0.60785 -3.67245,-1.13972 -2.0515,-0.5572 -4.45759,-0.91179 -2.40609,-0.3799 -4.93881,-0.3799 -2.02618,0 -3.46984,0.12663 -1.41832,0.12664 -2.40609,0.32926 -0.96243,0.20261 -1.54496,0.48121 -0.5572,0.25328 -0.86112,0.53188 -0.30393,0.2786 -0.40524,0.5572 -0.076,0.2786 -0.076,0.50654 0,0.75982 0.75982,1.34234 0.75981,0.5572 2.07683,1.01309 1.31702,0.43057 3.0646,0.8358 1.74758,0.37991 3.69777,0.81048 1.97553,0.40523 4.05236,0.91178 2.10217,0.48121 4.05236,1.13972 1.97553,0.65851 3.72311,1.54496 1.74758,0.86113 3.0646,2.02618 1.31701,1.16506 2.07683,2.68469 0.75982,1.51964 0.75982,3.46983 0,2.5074 -0.88646,4.30564 -0.88645,1.79823 -2.38076,3.03927 -1.46898,1.24103 -3.41918,2.00085 -1.95019,0.73449 -4.10301,1.13973 -2.12749,0.40523 -4.33096,0.53187 -2.17814,0.12663 -4.15367,0.12663 -5.16676,0 -9.5737,-0.86112 -4.38161,-0.8358 -7.75013,-2.10216 v -8.30734 q 3.46983,1.92487 7.9021,3.01394 4.45759,1.08907 9.52304,1.08907 2.98862,0 4.86283,-0.30392 1.89955,-0.32926 2.96329,-0.81048 1.06374,-0.50654 1.44365,-1.08907 0.37991,-0.58252 0.37991,-1.1144 0,-0.8358 -0.75982,-1.44365 -0.75981,-0.63318 -2.07683,-1.08907 -1.31702,-0.48122 -3.0646,-0.86113 -1.74758,-0.40523 -3.7231,-0.78514 -1.9502,-0.40524 -4.02703,-0.86113 -2.07684,-0.45589 -4.05236,-1.06374 -1.9502,-0.63318 -3.69778,-1.44366 -1.74758,-0.8358 -3.0646,-1.95019 -1.31701,-1.13973 -2.07683,-2.60871 -0.75982,-1.49431 -0.75982,-3.44451 0,-2.30478 0.81047,-3.97637 0.81047,-1.6716 2.17815,-2.83666 1.39299,-1.19038 3.19123,-1.92487 1.82356,-0.73449 3.82441,-1.13972 2.00086,-0.40524 4.05236,-0.5572 2.05151,-0.15197 3.9004,-0.15197 2.02618,0 4.15367,0.20262 2.15281,0.20262 4.22965,0.58253 2.07683,0.35458 4.0017,0.8358 1.9502,0.48122 3.59647,1.01309 z"
       id="text839"
       aria-label="SOLIDIUS" />
  </g>
</svg>

