<?xml version="1.0" encoding="UTF-8" standalone="no"?>
<svg
   viewBox="55.609986 96.100014 360.06042 213.1766"
   version="1.1"
   id="svg17"
   sodipodi:docname="Vertical_path.svg"
   width="360.06042"
   height="213.17661"
   inkscape:version="1.4.2 (f4327f4, 2025-05-13)"
   inkscape:export-filename="C:\Users\timop\OneDrive - DeveloX Oy\Timo\Solidius\Logo\Vertical.png"
   inkscape:export-xdpi="69"
   inkscape:export-ydpi="69"
   xmlns:inkscape="http://www.inkscape.org/namespaces/inkscape"
   xmlns:sodipodi="http://sodipodi.sourceforge.net/DTD/sodipodi-0.dtd"
   xmlns="http://www.w3.org/2000/svg"
   xmlns:svg="http://www.w3.org/2000/svg"
   xmlns:rdf="http://www.w3.org/1999/02/22-rdf-syntax-ns#"
   xmlns:cc="http://creativecommons.org/ns#"
   xmlns:dc="http://purl.org/dc/elements/1.1/">
  <metadata
     id="metadata23">
    <rdf:RDF>
      <cc:Work
         rdf:about="">
        <dc:format>image/svg+xml</dc:format>
        <dc:type
           rdf:resource="http://purl.org/dc/dcmitype/StillImage" />
      </cc:Work>
    </rdf:RDF>
  </metadata>
  <defs
     id="defs21" />
  <sodipodi:namedview
     pagecolor="#ffffff"
     bordercolor="#666666"
     borderopacity="1"
     objecttolerance="10"
     gridtolerance="10"
     guidetolerance="10"
     inkscape:pageopacity="0"
     inkscape:pageshadow="2"
     inkscape:window-width="3840"
     inkscape:window-height="2097"
     id="namedview19"
     showgrid="false"
     fit-margin-top="20"
     fit-margin-right="20"
     fit-margin-bottom="20"
     fit-margin-left="20"
     inkscape:zoom="1.1244555"
     inkscape:cx="238.33758"
     inkscape:cy="130.28528"
     inkscape:window-x="-8"
     inkscape:window-y="-8"
     inkscape:window-maximized="1"
     inkscape:current-layer="layer1"
     inkscape:document-rotation="0"
     inkscape:showpageshadow="2"
     inkscape:pagecheckerboard="0"
     inkscape:deskcolor="#d1d1d1" />
  <g
     inkscape:groupmode="layer"
     id="layer1"
     inkscape:label="Teksti"
     transform="translate(-51.859792,-54.446589)"
     style="display:inline">
    <path
       style="font-weight:bold;font-size:51.8702px;line-height:1.25;font-family:Syncopate;-inkscape-font-specification:'Syncopate Bold';stroke-width:1.235"
       d="m 161.40828,317.78811 q -0.98776,-0.48122 -2.60871,-1.08907 -1.62094,-0.60786 -3.67245,-1.13973 -2.0515,-0.5572 -4.45759,-0.91178 -2.40609,-0.37991 -4.93882,-0.37991 -2.02617,0 -3.46983,0.12664 -1.41832,0.12664 -2.40609,0.32925 -0.96243,0.20262 -1.54496,0.48122 -0.5572,0.25327 -0.86112,0.53187 -0.30393,0.2786 -0.40524,0.5572 -0.076,0.2786 -0.076,0.50655 0,0.75981 0.75981,1.34234 0.75982,0.5572 2.07684,1.01309 1.31702,0.43056 3.0646,0.8358 1.74758,0.37991 3.69777,0.81047 1.97553,0.40524 4.05236,0.91178 2.10216,0.48122 4.05236,1.13973 1.97553,0.65851 3.72311,1.54496 1.74758,0.86113 3.06459,2.02618 1.31702,1.16505 2.07684,2.68469 0.75982,1.51963 0.75982,3.46983 0,2.5074 -0.88646,4.30563 -0.88645,1.79824 -2.38076,3.03927 -1.46898,1.24104 -3.41918,2.00086 -1.95019,0.73449 -4.10301,1.13972 -2.12749,0.40524 -4.33096,0.53187 -2.17814,0.12664 -4.15367,0.12664 -5.16676,0 -9.5737,-0.86113 -4.38161,-0.8358 -7.75013,-2.10216 v -8.30733 q 3.46983,1.92487 7.9021,3.01394 4.45759,1.08907 9.52304,1.08907 2.98862,0 4.86283,-0.30393 1.89955,-0.32925 2.96329,-0.81047 1.06374,-0.50654 1.44365,-1.08907 0.37991,-0.58253 0.37991,-1.1144 0,-0.8358 -0.75982,-1.44365 -0.75981,-0.63318 -2.07683,-1.08907 -1.31702,-0.48122 -3.0646,-0.86113 -1.74758,-0.40524 -3.7231,-0.78515 -1.9502,-0.40523 -4.02703,-0.86112 -2.07684,-0.45589 -4.05236,-1.06375 -1.9502,-0.63318 -3.69778,-1.44365 -1.74758,-0.8358 -3.0646,-1.9502 -1.31702,-1.13972 -2.07683,-2.6087 -0.75982,-1.49431 -0.75982,-3.44451 0,-2.30478 0.81047,-3.97638 0.81047,-1.6716 2.17815,-2.83665 1.39299,-1.19038 3.19123,-1.92487 1.82356,-0.73449 3.82441,-1.13973 2.00085,-0.40523 4.05236,-0.55719 2.05151,-0.15197 3.9004,-0.15197 2.02618,0 4.15367,0.20262 2.15281,0.20262 4.22965,0.58253 2.07683,0.35458 4.0017,0.8358 1.9502,0.48121 3.59647,1.01309 z m 56.80902,7.6235 q 0,4.48292 -1.64628,7.92743 -1.64627,3.41918 -4.71086,5.72396 -3.0646,2.30478 -7.44621,3.49516 -4.35629,1.16505 -9.80165,1.16505 -5.44536,0 -9.8523,-1.16505 -4.38161,-1.19038 -7.47153,-3.49516 -3.08993,-2.30478 -4.76153,-5.72396 -1.6716,-3.44451 -1.6716,-7.92743 0,-4.48292 1.6716,-7.9021 1.6716,-3.44451 4.76153,-5.74928 3.08992,-2.30478 7.47153,-3.46984 4.40694,-1.19038 9.8523,-1.19038 5.44536,0 9.80165,1.19038 4.38161,1.16506 7.44621,3.46984 3.06459,2.30477 4.71086,5.74928 1.64628,3.41918 1.64628,7.9021 z m -9.49772,0 q 0,-1.9502 -0.63318,-3.87507 -0.60786,-1.9502 -2.20347,-3.49516 -1.57029,-1.54496 -4.30564,-2.5074 -2.73534,-0.96243 -6.96499,-0.96243 -2.83665,0 -4.98947,0.45589 -2.15281,0.43056 -3.7231,1.21571 -1.57029,0.78514 -2.63403,1.84889 -1.06375,1.03841 -1.69693,2.25412 -0.63318,1.19038 -0.91178,2.5074 -0.25327,1.29169 -0.25327,2.55805 0,1.29169 0.25327,2.60871 0.2786,1.31701 0.91178,2.53272 0.63318,1.19038 1.69693,2.2288 1.06374,1.03842 2.63403,1.82356 1.57029,0.75982 3.7231,1.21571 2.15282,0.43056 4.98947,0.43056 4.22965,0 6.96499,-0.96243 2.73535,-0.96244 4.30564,-2.5074 1.59561,-1.54496 2.20347,-3.46983 0.63318,-1.9502 0.63318,-3.9004 z m 18.05832,17.37449 v -34.79963 h 9.39641 v 27.17613 h 25.40323 v 7.6235 z m 42.32184,0 v -34.79963 h 9.39641 v 34.79963 z m 62.91288,-17.42514 q 0,3.34319 -0.73449,5.9519 -0.73449,2.58338 -2.07683,4.50825 -1.31702,1.92487 -3.19124,3.26721 -1.84889,1.34235 -4.12834,2.15282 -2.27945,0.81047 -4.91348,1.19038 -2.63404,0.35458 -5.49602,0.35458 h -22.08536 v -34.79963 h 22.03471 q 2.86198,0 5.49601,0.3799 2.63403,0.35459 4.91349,1.16506 2.30478,0.81047 4.17899,2.15281 1.87422,1.31702 3.19124,3.26722 1.34234,1.92487 2.07683,4.50825 0.73449,2.58338 0.73449,5.90125 z m -9.47239,0 q 0,-2.5074 -0.65851,-4.35629 -0.63318,-1.84889 -2.07683,-3.03927 -1.41833,-1.21571 -3.72311,-1.79823 -2.30478,-0.60786 -5.62265,-0.60786 h -11.67586 v 19.65395 h 11.67586 q 3.31787,0 5.62265,-0.58253 2.30478,-0.60786 3.72311,-1.82356 1.44365,-1.24104 2.07683,-3.08993 0.65851,-1.84889 0.65851,-4.35628 z m 18.033,17.42514 v -34.79963 h 9.39641 v 34.79963 z m 61.36791,-11.72651 q 0,2.6087 -1.29169,4.91348 -1.29169,2.30478 -3.87507,4.02704 -2.58338,1.72225 -6.45845,2.73534 -3.84974,0.98776 -9.0165,0.98776 -5.16676,0 -9.06715,-0.98776 -3.87507,-1.01309 -6.45845,-2.73534 -2.58338,-1.72226 -3.87507,-4.02704 -1.29169,-2.30478 -1.29169,-4.91348 v -23.07312 h 9.37108 v 19.70459 q 0,1.74758 0.43057,3.31787 0.45589,1.54496 1.67159,2.71002 1.24104,1.16505 3.44451,1.84889 2.2288,0.68383 5.77461,0.68383 3.52049,0 5.72396,-0.68383 2.20347,-0.68384 3.41918,-1.84889 1.24103,-1.16506 1.6716,-2.71002 0.43056,-1.57029 0.43056,-3.31787 v -19.70459 h 9.39641 v 23.07312 z m 42.70176,-13.27148 q -0.98776,-0.48122 -2.60871,-1.08907 -1.62094,-0.60786 -3.67245,-1.13973 -2.0515,-0.5572 -4.45759,-0.91178 -2.40609,-0.37991 -4.93882,-0.37991 -2.02618,0 -3.46983,0.12664 -1.41832,0.12664 -2.40609,0.32925 -0.96243,0.20262 -1.54496,0.48122 -0.5572,0.25327 -0.86113,0.53187 -0.30392,0.2786 -0.40523,0.5572 -0.076,0.2786 -0.076,0.50655 0,0.75981 0.75981,1.34234 0.75982,0.5572 2.07684,1.01309 1.31702,0.43056 3.0646,0.8358 1.74758,0.37991 3.69777,0.81047 1.97553,0.40524 4.05236,0.91178 2.10216,0.48122 4.05236,1.13973 1.97553,0.65851 3.72311,1.54496 1.74758,0.86113 3.06459,2.02618 1.31702,1.16505 2.07684,2.68469 0.75982,1.51963 0.75982,3.46983 0,2.5074 -0.88646,4.30563 -0.88645,1.79824 -2.38076,3.03927 -1.46898,1.24104 -3.41918,2.00086 -1.9502,0.73449 -4.10301,1.13972 -2.12749,0.40524 -4.33096,0.53187 -2.17814,0.12664 -4.15367,0.12664 -5.16676,0 -9.5737,-0.86113 -4.38161,-0.8358 -7.75014,-2.10216 v -8.30733 q 3.46984,1.92487 7.90211,3.01394 4.45759,1.08907 9.52304,1.08907 2.98862,0 4.86283,-0.30393 1.89954,-0.32925 2.96329,-0.81047 1.06374,-0.50654 1.44365,-1.08907 0.37991,-0.58253 0.37991,-1.1144 0,-0.8358 -0.75982,-1.44365 -0.75981,-0.63318 -2.07683,-1.08907 -1.31702,-0.48122 -3.0646,-0.86113 -1.74758,-0.40524 -3.7231,-0.78515 -1.9502,-0.40523 -4.02703,-0.86112 -2.07684,-0.45589 -4.05236,-1.06375 -1.9502,-0.63318 -3.69778,-1.44365 -1.74758,-0.8358 -3.0646,-1.9502 -1.31702,-1.13972 -2.07683,-2.6087 -0.75982,-1.49431 -0.75982,-3.44451 0,-2.30478 0.81047,-3.97638 0.81047,-1.6716 2.17814,-2.83665 1.393,-1.19038 3.19124,-1.92487 1.82356,-0.73449 3.82441,-1.13973 2.00085,-0.40523 4.05236,-0.55719 2.05151,-0.15197 3.9004,-0.15197 2.02618,0 4.15367,0.20262 2.15281,0.20262 4.22965,0.58253 2.07683,0.35458 4.0017,0.8358 1.9502,0.48121 3.59647,1.01309 z"
       id="text839"
       aria-label="SOLIDIUS" />
  </g>
  <g
     inkscape:groupmode="layer"
     id="layer2"
     inkscape:label="Logo"
     transform="translate(-51.859792,-54.446589)"
     style="display:inline">
    <g
       id="g853"
       transform="matrix(1.4295797,0,0,1.3884136,168.16891,-118.62231)"
       style="display:inline;fill:currentColor;fill-opacity:1">
      <path
         class="st0"
         d="m 116.84639,245.68826 h 5.0993 c -0.17882,-32.7292 -4.63684,-37.23039 -36.274662,-37.41537 v 6.24 c 0,17.22168 13.959855,31.17537 31.175362,31.17537 z"
         style="fill:currentColor;fill-opacity:1;stroke-width:0.0616601"
         id="path1"
         sodipodi:nodetypes="sccss" />
      <path
         class="st0"
         d="m 50.105459,250.08463 h -5.10546 c 0.178815,32.7292 4.636843,37.23039 36.274661,37.41537 v -6.24001 c 0.0062,-17.22167 -13.95369,-31.17536 -31.169201,-31.17536 z"
         style="fill:currentColor;fill-opacity:1;stroke-width:0.0616601"
         id="path2-4" />
      <path
         class="st0"
         d="m 44.999999,245.68826 h 5.099294 c 17.215511,0 31.175367,-13.95986 31.175367,-31.17537 v -6.24 c -31.637818,0.18498 -36.095846,4.69233 -36.274661,37.41537 z"
         style="fill:currentColor;fill-opacity:1;stroke-width:0.0616601"
         id="path3" />
      <path
         class="st0"
         d="M 85.671028,281.25999 V 287.5 c 31.643982,-0.18498 36.102012,-4.69234 36.274662,-37.41537 h -5.0993 c -17.215507,0 -31.175362,13.95369 -31.175362,31.17536 z"
         style="fill:currentColor;fill-opacity:1;stroke-width:0.0616601"
         id="path4-4" />
    </g>
  </g>
</svg>

